#!OML:ASF F:\VICON\USERDATA\INSTALL\Justin_Nancy\Justin_Nancy.ASF
:FULLY-SPECIFIED
:DEGREES
156
root 0.654701 17.6999 -15.7468 4.5518 -2.50096 -0.508914
lowerback 5.28712 -0.203574 -0.66483
upperback -0.90979 -0.200949 3.02595
thorax -3.89549 -0.0501917 3.5254
lowerneck -14.7221 -3.98116 -10.6451
upperneck 20.7828 -4.28619 5.85678
head 9.34246 -2.21772 3.25941
rclavicle -1.49089e-015 -3.18055e-015
rhumerus -34.4269 -7.90413 -79.4934
rradius 35.8591
rwrist 3.42219
rhand -11.6771 12.7338
rfingers 7.12502
rthumb 14.3682 -16.749
lclavicle -1.49089e-015 -3.18055e-015
lhumerus -35.5276 12.3806 83.8183
lradius 31.5651
lwrist -3.11976
lhand -21.5123 17.6326
lfingers 7.12502
lthumb 4.87965 47.5564
rfemur -11.0966 4.5157 19.3333
rtibia 23.7939
rfoot -12.3957 -7.57842
rtoes 7.64662
lfemur -12.1671 -3.44814 -17.1258
ltibia 25.1839
lfoot -13.8672 8.03336
ltoes -1.69604
157
root 0.654336 17.6972 -15.7427 4.5094 -2.50915 -0.418478
lowerback 5.23527 -0.218612 -0.747747
upperback -0.867683 -0.228322 3.01615
thorax -3.82047 -0.0633682 3.56333
lowerneck -14.6079 -3.95011 -10.6899
upperneck 20.6998 -4.24975 5.89024
head 9.29078 -2.20132 3.28332
rclavicle -6.16232e-015 -4.77083e-015
rhumerus -34.4342 -7.77185 -79.5452
rradius 36.013
rwrist 3.43319
rhand -11.951 12.711
rfingers 7.12502
rthumb 14.1042 -16.7904
lclavicle -6.16232e-015 -4.77083e-015
lhumerus -35.547 12.3908 83.8405
lradius 31.6389
lwrist -3.10734
lhand -21.4479 18.004
lfingers 7.12502
lthumb 4.94192 47.9263
rfemur -11.0588 4.4908 19.2345
rtibia 23.8311
rfoot -12.3222 -7.52822
rtoes 7.80721
lfemur -12.0999 -3.47814 -17.2376
ltibia 25.15
lfoot -13.8584 8.10088
ltoes -1.98327
158
root 0.651155 17.6989 -15.7418 4.50643 -2.52478 -0.452452
lowerback 5.18088 -0.212547 -0.685559
upperback -0.808065 -0.219035 2.98621
thorax -3.72877 -0.0620936 3.49477
lowerneck -14.61 -3.94809 -10.6022
upperneck 20.6492 -4.2665 5.88989
head 9.27263 -2.20149 3.26579
rclavicle 4.07509e-015 9.54166e-015
rhumerus -34.3406 -7.85346 -79.6451
rradius 36.0988
rwrist 3.56583
rhand -12.0522 12.8215
rfingers 7.12502
rthumb 14.0067 -16.6866
lclavicle 4.07509e-015 9.54166e-015
lhumerus -35.452 12.3156 83.808
lradius 31.7128
lwrist -3.18193
lhand -21.1606 18.2504
lfingers 7.12502
lthumb 5.21924 48.1662
rfemur -11.0575 4.55951 19.2925
rtibia 23.8551
rfoot -12.2157 -7.55534
rtoes 7.82582
lfemur -12.06 -3.54718 -17.1844
ltibia 25.1107
lfoot -13.9142 8.14239
ltoes -1.38567
159
root 0.649884 17.7018 -15.7425 4.58722 -2.51687 -0.455245
lowerback 5.14883 -0.206224 -0.681966
upperback -0.820566 -0.210542 2.98164
thorax -3.72422 -0.0579214 3.48705
lowerneck -14.6108 -3.97514 -10.4893
upperneck 20.6058 -4.31126 5.80711
head 9.25718 -2.22167 3.21159
rclavicle 6.4605e-015 -1.43125e-014
rhumerus -34.3037 -7.80993 -79.6861
rradius 36.1601
rwrist 3.4648
rhand -12.011 12.7458
rfingers 7.12502
rthumb 14.0464 -16.7595
lclavicle 6.4605e-015 -1.43125e-014
lhumerus -35.4769 12.1975 83.8497
lradius 31.8806
lwrist -3.11242
lhand -21.1004 18.2453
lfingers 7.12502
lthumb 5.2774 48.1596
rfemur -11.155 4.61498 19.2935
rtibia 23.8498
rfoot -12.2801 -7.60528
rtoes 7.75561
lfemur -12.1251 -3.64419 -17.1635
ltibia 25.1014
lfoot -13.9444 8.16096
ltoes -0.528301
160
root 0.650425 17.7005 -15.7403 4.61056 -2.49296 -0.427752
lowerback 5.15782 -0.230048 -0.691267
upperback -0.840765 -0.241897 2.99651
thorax -3.74812 -0.0727004 3.51075
lowerneck -14.6151 -3.9953 -10.5105
upperneck 20.6826 -4.32232 5.74707
head 9.28531 -2.2359 3.19351
rclavicle -2.78299e-015 -3.10104e-014
rhumerus -34.2999 -7.73482 -79.6626
rradius 36.1986
rwrist 3.41957
rhand -11.8376 12.7076
rfingers 7.12502
rthumb 14.2135 -16.7861
lclavicle -2.78299e-015 -3.10104e-014
lhumerus -35.585 12.1234 83.9147
lradius 32.0189
lwrist -3.08601
lhand -20.9128 18.2206
lfingers 7.12502
lthumb 5.4585 48.1303
rfemur -11.1651 4.55015 19.2572
rtibia 23.8185
rfoot -12.3671 -7.60047
rtoes 7.36431
lfemur -12.1757 -3.62389 -17.2004
ltibia 25.138
lfoot -13.9121 8.15772
ltoes -1.32367
161
root 0.651265 17.6988 -15.7361 4.59677 -2.49143 -0.434704
lowerback 5.10461 -0.214188 -0.628388
upperback -0.775387 -0.219221 2.97938
thorax -3.65202 -0.0646494 3.45406
lowerneck -14.7929 -4.04437 -10.4841
upperneck 20.8798 -4.37688 5.7169
head 9.39078 -2.26236 3.17214
rclavicle 1.88845e-014 1.66979e-014
rhumerus -34.2182 -7.77282 -79.6832
rradius 36.2791
rwrist 3.39217
rhand -11.7436 13.0942
rfingers 7.12502
rthumb 14.3041 -16.3931
lclavicle 1.88845e-014 1.66979e-014
lhumerus -35.4625 11.9681 83.9749
lradius 32.0312
lwrist -3.09099
lhand -20.6162 18.4803
lfingers 7.12502
lthumb 5.74493 48.3824
rfemur -11.1194 4.52286 19.2623
rtibia 23.7999
rfoot -12.3682 -7.60673
rtoes 7.45435
lfemur -12.2034 -3.63265 -17.2078
ltibia 25.1962
lfoot -13.8843 8.22888
ltoes -2.30436
